<svg width="256" height="256" viewBox="0 0 256 256" fill="none" xmlns="http://www.w3.org/2000/svg">
<g clip-path="url(#clip0_105_2)">
<path d="M226.033 133.562L201.328 128.536L226.033 123.509C234.509 121.722 239.38 112.593 236.471 104.09C233.562 95.587 224.463 90.6979 215.987 92.4849L171.744 101.459L127.5 110.433L83.2562 101.459L39.0132 92.4849C30.5372 90.6979 21.4381 95.587 18.529 104.09C15.62 112.593 20.4908 121.722 29.0239 123.509L53.6724 128.536L28.9668 133.562C20.4908 135.349 15.62 144.478 18.529 152.981C21.4381 161.484 30.5372 166.373 39.0132 164.586L83.2562 155.612L127.5 146.638L171.744 155.612L215.987 164.586C224.463 166.373 233.562 161.484 236.471 152.981C239.38 144.478 234.509 135.349 226.033 133.562Z" fill="#F46A25"/>
</g>
<defs>
<clipPath id="clip0_105_2">
<rect width="218" height="74" fill="white" transform="translate(18 91)"/>
</clipPath>
</defs>
</svg>
