<svg width="256" height="256" viewBox="0 0 256 256" fill="none" xmlns="http://www.w3.org/2000/svg">
<path d="M0 0H256V256H0V0Z" fill="white"/>
<path d="M128 26C68.4 26 20 74.4 20 134C20 193.6 68.4 242 128 242C187.6 242 236 193.6 236 134C236 74.4 187.6 26 128 26Z" fill="#F07D22"/>
<path d="M128 36C74 36 30 79.9 30 134C30 188.1 74 232 128 232C182 232 226 188.1 226 134C226 79.9 182 36 128 36Z" fill="#F7941E"/>
<path d="M128 41C76.8 41 35 82.8 35 134C35 185.2 76.8 227 128 227C179.2 227 221 185.2 221 134C221 82.8 179.2 41 128 41Z" fill="#F7941E"/>
<path d="M128 41C76.8 41 35 82.8 35 134C35 185.2 76.8 227 128 227C179.2 227 221 185.2 221 134C221 82.8 179.2 41 128 41Z" fill="white"/>
<path d="M128 42C77.4 42 36 83.4 36 134C36 184.6 77.4 226 128 226C178.6 226 220 184.6 220 134C220 83.4 178.6 42 128 42Z" fill="#F7941E"/>
<path d="M110.2 186.2H144.4L187.7 75H153.5L131.9 144.1L128.6 155.8L125.3 144.1L103.7 75H69.5L110.2 186.2Z" fill="#004A99"/>
</svg>
