<svg width="256" height="256" viewBox="0 0 256 256" fill="none" xmlns="http://www.w3.org/2000/svg">
<path d="M0 0H256V256H0V0Z" fill="white"/>
<path d="M211.2 110.3L142.1 41.2001C133.5 32.6001 120.9 32.6001 112.3 41.2001L43.2 110.3C34.6 118.9 34.6 131.5 43.2 140.1L112.3 209.2C120.9 217.8 133.5 217.8 142.1 209.2L211.2 140.1C219.8 131.5 219.8 118.9 211.2 110.3Z" fill="#EAAA00"/>
<path d="M158.4 110.3L126.2 78.1001C123.6 75.5001 119.6 75.5001 117 78.1001L84.8 110.3C82.2 112.9 82.2 116.9 84.8 119.5L117 151.7C119.6 154.3 123.6 154.3 126.2 151.7L158.4 119.5C161 116.9 161 112.9 158.4 110.3Z" fill="#D32E26"/>
</svg>
