<svg width="256" height="256" viewBox="0 0 256 256" fill="none" xmlns="http://www.w3.org/2000/svg">
<path d="M0 0H256V256H0V0Z" fill="white"/>
<path d="M43.9001 205H211.9L229.1 128L212 51H44L26.9 128L43.9001 205Z" fill="#E8E8E8"/>
<path d="M43.9001 205H211.9L229.1 128L212 51H44L26.9 128L43.9001 205Z" fill="#0058A0"/>
<path d="M109 178L130.3 127.9L109 77.8H138.8L160.1 127.9L138.8 178H109Z" fill="#E8E8E8"/>
<path d="M109 178L130.3 127.9L109 77.8H138.8L160.1 127.9L138.8 178H109Z" fill="#54AEE8"/>
<path d="M45 178L66.3 127.9L45 77.8H74.8L96.1 127.9L74.8 178H45Z" fill="#E8E8E8"/>
</svg>
