<svg width="256" height="256" viewBox="0 0 256 256" fill="none" xmlns="http://www.w3.org/2000/svg">
<path d="M0 0H256V256H0V0Z" fill="white"/>
<path d="M128 48C110.537 48 93.8163 54.9107 81.3137 67.4137C68.8107 79.9163 61.9001 96.6373 61.9001 114.1C61.9001 127.425 65.8601 140.238 73.0601 150.9L35.2001 157.1C32.1001 146 30.4001 134.4 30.4001 122.5C30.4001 78.4 65.5001 42.1 109.2 42.1C136.2 42.1 160.3 54.3 175.7 73.1L159.2 83.3C148.6 65.6 128.9 48 128 48Z" fill="#EA7223"/>
<path d="M182.24 105.7L220.1 99.5C223.2 109.6 224.9 121.2 224.9 133.1C224.9 177.2 189.8 213.5 146.1 213.5C119.1 213.5 95 201.3 79.6001 182.5L96.1001 172.3C106.7 190 126.4 207.6 127.3 207.6C144.763 207.6 161.484 200.69 173.986 188.187C186.49 175.684 193.4 158.963 193.4 141.5C193.4 128.175 189.44 115.362 182.24 104.7V105.7Z" fill="#EA7223"/>
</svg>
