<svg width="256" height="256" viewBox="0 0 256 256" fill="none" xmlns="http://www.w3.org/2000/svg">
<rect width="256" height="256" fill="white"/>
<path d="M78.9 220H20V36H78.9C102.7 36 119.5 53.2 119.5 77.3V78.9C119.5 102.7 102.7 120 78.9 120H51V220H78.9C102.7 220 119.5 202.8 119.5 178.7V177.1C119.5 153.3 102.7 136 78.9 136H51V120H78.9C110.7 120 135.5 99.4 135.5 70.9V69.3C135.5 40.8 110.7 20 78.9 20H20C11.2 20 4 27.2 4 36V220C4 228.8 11.2 236 20 236H78.9C110.7 236 135.5 215.2 135.5 186.7V185.1C135.5 156.6 110.7 136 78.9 136H51V120H78.9C102.7 120 119.5 102.8 119.5 78.7V77.1C119.5 53.3 102.7 36 78.9 36H51V220H20V36H78.9C102.7 36 119.5 53.2 119.5 77.3V78.9C119.5 102.7 102.7 120 78.9 120H51V220H78.9C102.7 220 119.5 202.8 119.5 178.7V177.1C119.5 153.3 102.7 136 78.9 136H51V120H78.9Z" fill="#B7202E"/>
<path d="M236 220H120.5V20H236C244.8 20 252 27.2 252 36V204C252 212.8 244.8 220 236 220ZM218 128V104H155V128H183V152H155V176H218V128Z" fill="#B7202E"/>
</svg>
