<svg width="256" height="256" viewBox="0 0 256 256" fill="none" xmlns="http://www.w3.org/2000/svg">
<path fill-rule="evenodd" clip-rule="evenodd" d="M0 0H256V256H0V0Z" fill="white"/>
<path fill-rule="evenodd" clip-rule="evenodd" d="M149 204.2C138.8 206.8 128.8 208.2 118.8 208.2C69.4 208.2 29.8001 168.6 29.8001 119.2C29.8001 110.6 31.2001 102.4 33.8001 94.6L79.4001 117.2V124.6C79.4001 144.2 95.8001 160.6 115.4 160.6C131.6 160.6 145.4 149.6 150.8 135.2L149 204.2ZM129.2 46.8C154.2 46.8 176.4 58.2 191.6 77.2L219 62.4C200.4 40.8 168 26.2 130.6 26.2C101.4 26.2 75.4001 39.4 57.0001 59.4L80.6001 76.4C93.4001 59.8 110.2 46.8 129.2 46.8Z" fill="#C7222A"/>
<path d="M129.2 46.8C110.2 46.8 93.4001 59.8 80.6001 76.4L57.0001 59.4C75.4001 39.4 101.4 26.2 130.6 26.2C168 26.2 200.4 40.8 219 62.4L191.6 77.2C176.4 58.2 154.2 46.8 129.2 46.8Z" fill="#E83A4A"/>
<path d="M118.8 208.2C128.8 208.2 138.8 206.8 149 204.2L150.8 135.2C145.4 149.6 131.6 160.6 115.4 160.6C95.8001 160.6 79.4001 144.2 79.4001 124.6V117.2L33.8001 94.6C31.2001 102.4 29.8001 110.6 29.8001 119.2C29.8001 168.6 69.4 208.2 118.8 208.2Z" fill="#4B3A33"/>
<path d="M118.8 208.2C69.4 208.2 29.8001 168.6 29.8001 119.2C29.8001 110.6 31.2001 102.4 33.8001 94.6L79.4001 117.2V124.6C79.4001 144.2 95.8001 160.6 115.4 160.6C131.6 160.6 145.4 149.6 150.8 135.2L149 204.2C138.8 206.8 128.8 208.2 118.8 208.2Z" fill="#4B3A33"/>
<path fill-rule="evenodd" clip-rule="evenodd" d="M191.6 77.2C176.4 58.2 154.2 46.8 129.2 46.8C110.2 46.8 93.4001 59.8 80.6001 76.4L150.8 135.2C145.4 149.6 131.6 160.6 115.4 160.6C95.8001 160.6 79.4001 144.2 79.4001 124.6V117.2L33.8001 94.6L80.6001 76.4L57.0001 59.4L150.8 135.2L191.6 77.2Z" fill="#E83A4A"/>
</svg>
