<svg width="200" height="200" viewBox="0 0 200 200" fill="none" xmlns="http://www.w3.org/2000/svg">
<path d="M0 0H200V200H0V0Z" fill="white"/>
<g clip-path="url(#clip0_110_2)">
<path d="M100 33.3333C63.18 33.3333 33.3333 63.18 33.3333 100C33.3333 136.82 63.18 166.667 100 166.667C136.82 166.667 166.667 136.82 166.667 100C166.667 63.18 136.82 33.3333 100 33.3333Z" fill="#C51E24"/>
<path d="M100 45.8333C69.9733 45.8333 45.8333 69.9733 45.8333 100C45.8333 130.027 69.9733 154.167 100 154.167C130.027 154.167 154.167 130.027 154.167 100C154.167 69.9733 130.027 45.8333 100 45.8333Z" fill="white"/>
<path d="M100 58.3333C76.9933 58.3333 58.3333 76.9933 58.3333 100C58.3333 123.007 76.9933 141.667 100 141.667C123.007 141.667 141.667 123.007 141.667 100C141.667 76.9933 123.007 58.3333 100 58.3333Z" fill="#C51E24"/>
<path d="M100 70.8333C82.8567 70.8333 70.8333 82.8567 70.8333 100V100.2C70.8333 117.143 82.8567 129.167 100 129.167C117.143 129.167 129.167 117.143 129.167 100.2V100C129.167 82.8567 117.143 70.8333 100 70.8333Z" fill="white"/>
</g>
<defs>
<clipPath id="clip0_110_2">
<rect width="133.333" height="133.333" fill="white" transform="translate(33.3333 33.3333)"/>
</clipPath>
</defs>
</svg>
