<svg width="200" height="200" viewBox="0 0 200 200" fill="none" xmlns="http://www.w3.org/2000/svg">
<path d="M0 0H200V200H0V0Z" fill="white"/>
<g clip-path="url(#clip0_109_2)">
<path d="M165.714 91.0714H108.929V34.2857H91.0714V91.0714H34.2857V108.929H91.0714V165.714H108.929V108.929H165.714V91.0714Z" fill="#003A72"/>
<path d="M100 25C95.2 25 91.0714 26.1 87.5 27.9V50C91.1 48.2 95.2 47.1 100 47.1C129.2 47.1 152.9 70.8 152.9 100C152.9 129.2 129.2 152.9 100 152.9C95.2 152.9 91.1 151.8 87.5 150V172.1C91.1 173.9 95.2 175 100 175C141.4 175 175 141.4 175 100C175 58.6 141.4 25 100 25Z" fill="#C71F2D"/>
<path d="M47.1429 100C47.1429 70.8 70.8393 47.1 100 47.1C104.8 47.1 108.9 48.2 112.5 50V27.9C108.9 26.1 104.8 25 100 25C58.5714 25 25 58.6 25 100C25 141.4 58.5714 175 100 175C104.8 175 108.9 173.9 112.5 172.1V150C108.9 151.8 104.8 152.9 100 152.9C70.8393 152.9 47.1429 129.2 47.1429 100Z" fill="#003A72"/>
</g>
<defs>
<clipPath id="clip0_109_2">
<rect width="150" height="150" fill="white" transform="translate(25 25)"/>
</clipPath>
</defs>
</svg>
