<svg width="256" height="256" viewBox="0 0 256 256" fill="none" xmlns="http://www.w3.org/2000/svg">
<path d="M0 0H256V256H0V0Z" fill="white"/>
<path d="M228.09 30H27.91C12.52 30 0 42.52 0 57.91V198.09C0 213.48 12.52 226 27.91 226H228.09C243.48 226 256 213.48 256 198.09V57.91C256 42.52 243.48 30 228.09 30Z" fill="#E41F26"/>
<path d="M128 206C171.19 206 206 171.19 206 128C206 84.81 171.19 50 128 50C84.81 50 50 84.81 50 128C50 171.19 84.81 206 128 206Z" fill="white"/>
<path d="M128 211C173.96 211 211 173.96 211 128C211 82.04 173.96 45 128 45C82.04 45 45 82.04 45 128C45 173.96 82.04 211 128 211Z" fill="white"/>
<path d="M128 211C173.96 211 211 173.96 211 128C211 82.04 173.96 45 128 45C82.04 45 45 82.04 45 128C45 173.96 82.04 211 128 211Z" fill="#C4C4C4"/>
<path d="M128 206C171.19 206 206 171.19 206 128C206 84.81 171.19 50 128 50C84.81 50 50 84.81 50 128C50 171.19 84.81 206 128 206Z" fill="white"/>
<path d="M128 201C168.38 201 201 168.38 201 128C201 87.62 168.38 55 128 55C87.62 55 55 87.62 55 128C55 168.38 87.62 201 128 201Z" fill="#E41F26"/>
<path d="M136.21 114.73L163.67 65H137.99L120.35 97.48L118.84 100.2L117.21 97.48L99.64 65H73.96L101.42 114.73V166H114.86V139.06L128.01 166H143.08L122.95 126.9L136.21 114.73Z" fill="white"/>
</svg>
